<svg width="131" height="134" viewBox="0 0 131 134" fill="none" xmlns="http://www.w3.org/2000/svg">
<path d="M65.6201 133.01C101.723 133.01 130.99 103.743 130.99 67.64C130.99 31.5372 101.723 2.27014 65.6201 2.27014C29.5173 2.27014 0.25 31.5372 0.25 67.64C0.25 103.743 29.5173 133.01 65.6201 133.01Z" fill="url(#paint0_linear_1_1135)"/>
<path d="M65.6201 131.34C101.723 131.34 130.99 102.073 130.99 65.9701C130.99 29.8672 101.723 0.599976 65.6201 0.599976C29.5173 0.599976 0.25 29.8672 0.25 65.9701C0.25 102.073 29.5173 131.34 65.6201 131.34Z" fill="url(#paint1_linear_1_1135)"/>
<path d="M65.0801 25.1C53.8901 25.1 52.4903 25.15 48.0903 25.35C43.7003 25.55 40.7103 26.2501 38.0903 27.2601C35.3803 28.3101 33.08 29.7201 30.79 32.0101C28.5 34.3001 27.0903 36.5999 26.0303 39.3099C25.0103 41.9299 24.3101 44.9299 24.1201 49.3099C23.9201 53.6999 23.8701 55.1099 23.8701 66.2999C23.8701 77.4899 23.9201 78.8902 24.1201 83.2802C24.3201 87.6702 25.0203 90.6601 26.0303 93.2802C27.0803 95.9902 28.4903 98.29 30.7803 100.58C33.0703 102.87 35.3701 104.28 38.0801 105.34C40.7001 106.36 43.7001 107.05 48.0801 107.25C52.4701 107.45 53.8803 107.5 65.0703 107.5C76.2603 107.5 77.6601 107.45 82.0601 107.25C86.4501 107.05 89.4403 106.35 92.0703 105.34C94.7803 104.29 97.0704 102.88 99.3604 100.58C101.65 98.29 103.06 95.9902 104.12 93.2802C105.13 90.6601 105.83 87.6602 106.03 83.2802C106.23 78.8902 106.28 77.4799 106.28 66.2899C106.28 55.0999 106.23 53.6999 106.03 49.2999C105.82 44.9099 105.13 41.9199 104.12 39.2999C103.06 36.5899 101.66 34.2901 99.3604 32.0001C97.0704 29.7101 94.7801 28.3001 92.0601 27.2501C89.4301 26.2301 86.4403 25.54 82.0503 25.34C77.6603 25.14 76.2601 25.09 65.0601 25.09H65.0703L65.0801 25.1ZM61.3804 32.5201C62.4804 32.5201 63.7001 32.5201 65.0801 32.5201C76.0801 32.5201 77.38 32.5601 81.73 32.7601C85.75 32.9401 87.9304 33.6101 89.3804 34.1801C91.3004 34.9301 92.6703 35.8201 94.1104 37.2601C95.5504 38.7001 96.4404 40.0801 97.1904 42.0001C97.7504 43.4501 98.4304 45.63 98.6104 49.65C98.8103 53.99 98.8501 55.2999 98.8501 66.2899C98.8501 77.2799 98.8103 78.5901 98.6104 82.9301C98.4304 86.9501 97.7604 89.13 97.1904 90.58C96.4404 92.5 95.5504 93.8699 94.1104 95.3099C92.6703 96.7499 91.3004 97.64 89.3804 98.39C87.9304 98.96 85.75 99.6299 81.73 99.8099C77.39 100.01 76.0801 100.05 65.0801 100.05C54.0801 100.05 52.7702 100.01 48.4302 99.8099C44.4102 99.6199 42.2303 98.95 40.7803 98.39C38.8603 97.64 37.48 96.7499 36.04 95.3099C34.6 93.8699 33.7104 92.4999 32.9604 90.5699C32.4004 89.1199 31.72 86.94 31.54 82.92C31.34 78.58 31.3003 77.2701 31.3003 66.2701C31.3003 55.2701 31.34 53.97 31.54 49.63C31.72 45.61 32.3904 43.4301 32.9604 41.9801C33.7104 40.0601 34.6 38.6801 36.04 37.2401C37.48 35.8001 38.8603 34.91 40.7803 34.16C42.2303 33.59 44.4102 32.9201 48.4302 32.7401C52.2302 32.5701 53.7004 32.5201 61.3804 32.5101V32.5201ZM87.0703 39.37C84.3403 39.37 82.1304 41.5799 82.1304 44.3099C82.1304 47.0399 84.3403 49.2501 87.0703 49.2501C89.8003 49.2501 92.0103 47.0399 92.0103 44.3099C92.0103 41.5799 89.8003 39.37 87.0703 39.37ZM65.0801 45.15C53.4001 45.15 43.9204 54.6199 43.9204 66.3099C43.9204 77.9999 53.3901 87.4601 65.0801 87.4601C76.7701 87.4601 86.2402 77.9899 86.2402 66.3099C86.2402 54.6299 76.7701 45.15 65.0801 45.15ZM65.0801 52.5699C72.6601 52.5699 78.8101 58.7199 78.8101 66.2999C78.8101 73.8799 72.6601 80.0302 65.0801 80.0302C57.5001 80.0302 51.3501 73.8799 51.3501 66.2999C51.3501 58.7199 57.5001 52.5699 65.0801 52.5699Z" fill="white"/>
<defs>
<linearGradient id="paint0_linear_1_1135" x1="19.635" y1="114.143" x2="111.613" y2="21.2291" gradientUnits="userSpaceOnUse">
<stop stop-color="#FFDD55"/>
<stop offset="0.41" stop-color="#FF543E"/>
<stop offset="1" stop-color="#C837AB"/>
</linearGradient>
<linearGradient id="paint1_linear_1_1135" x1="18.3397" y1="20.7961" x2="112.545" y2="111.452" gradientUnits="userSpaceOnUse">
<stop stop-color="#3771C8"/>
<stop offset="0.57" stop-color="#6600FF" stop-opacity="0"/>
</linearGradient>
</defs>
</svg>
